<?xml version="1.0" standalone="no"?>
<!DOCTYPE svg PUBLIC "-//W3C//DTD SVG 20010904//EN"
 "http://www.w3.org/TR/2001/REC-SVG-20010904/DTD/svg10.dtd">
<svg version="1.0" xmlns="http://www.w3.org/2000/svg"
 width="1500.000000pt" height="1500.000000pt" viewBox="0 0 1500.000000 1500.000000"
 preserveAspectRatio="xMidYMid meet">
<metadata>
Created by potrace 1.11, written by Peter Selinger 2001-2013
</metadata>
<g transform="translate(0.000000,1500.000000) scale(0.100000,-0.100000)"
fill="#000000" stroke="none">
<path d="M1504 7501 c1 -4191 5 -7133 10 -7138 5 -4 6 -3 2 5 -5 8 3 16 23 23
17 6 31 15 31 21 0 5 4 7 9 3 6 -3 14 3 20 12 5 10 12 17 15 16 11 -3 46 10
46 17 0 4 9 10 21 13 12 3 18 10 14 16 -3 6 0 9 8 5 8 -3 18 0 22 5 3 6 11 9
16 6 5 -4 9 -1 9 4 0 6 6 11 14 11 8 0 16 4 18 9 2 5 10 11 18 13 21 5 39 22
32 32 -3 5 0 6 6 2 6 -3 13 -2 17 4 4 6 10 8 15 5 5 -3 15 3 22 13 7 11 15 19
18 19 17 0 50 16 50 24 0 6 4 8 9 4 6 -3 14 3 20 12 6 10 11 15 11 10 0 -4 10
-1 23 8 13 8 27 12 30 8 4 -3 7 1 7 9 0 13 50 41 62 35 1 -1 2 0 1 2 -5 8 72
49 81 44 5 -4 7 0 4 8 -4 10 1 15 15 16 11 1 24 8 28 15 5 7 9 9 9 5 0 -5 7
-1 16 7 8 9 20 14 25 11 5 -4 9 -1 9 5 0 6 11 15 25 20 14 5 25 14 25 20 0 5
3 9 8 9 18 -3 30 2 52 23 13 13 29 23 35 23 22 2 45 18 38 28 -3 6 -1 7 6 3 6
-4 18 0 27 8 9 9 20 14 25 10 5 -3 12 2 15 10 3 9 14 16 24 16 10 0 20 3 22 8
2 4 18 18 37 31 19 13 31 17 27 10 -4 -8 0 -5 8 5 9 11 16 16 16 11 0 -5 7 0
16 11 8 10 13 12 9 4 -4 -9 -1 -8 8 3 8 10 24 19 35 20 11 0 19 4 16 8 -4 7
14 24 27 24 13 0 79 40 79 48 0 4 5 5 10 2 6 -3 10 -1 10 4 0 6 4 10 9 8 14
-3 51 44 44 57 -12 18 -10 76 1 76 7 0 8 3 1 8 -14 10 -14 72 -1 72 8 0 8 3 1
8 -6 4 -11 21 -11 37 0 17 5 33 11 37 7 5 7 8 -1 8 -8 0 -12 98 -4 108 3 3 3
41 0 45 -8 9 -4 77 4 77 8 0 8 3 1 8 -6 4 -11 27 -11 52 0 25 5 48 11 52 7 5
7 8 -1 8 -8 0 -12 68 -4 78 1 1 2 11 2 22 0 11 -1 21 -2 23 -8 9 -4 77 4 77 8
0 8 3 1 8 -14 9 -14 95 0 104 7 5 7 8 -1 8 -11 0 -13 64 -2 76 4 4 3 15 -3 25
-7 14 -6 19 3 19 8 0 9 3 3 8 -14 9 -14 65 0 74 7 5 7 8 -1 8 -13 0 -13 93 1
102 7 5 7 8 -1 8 -11 0 -13 64 -2 76 4 4 3 15 -3 25 -7 14 -6 19 3 19 8 0 9 3
3 8 -6 4 -11 21 -11 37 0 17 5 33 11 37 7 5 7 8 -1 8 -11 0 -13 68 -2 86 4 6
4 14 1 18 -10 10 -11 46 -1 46 5 0 6 6 1 13 -11 17 -11 77 -1 77 5 0 6 6 1 13
-10 16 -11 67 -1 73 5 3 6 10 3 15 -12 18 -14 49 -4 54 5 4 6 12 2 18 -11 18
-10 67 2 67 7 0 7 3 0 8 -14 9 -13 55 0 64 7 5 6 8 0 8 -6 0 -11 22 -11 50 0
28 5 50 11 50 6 0 7 3 0 8 -5 4 -10 16 -10 27 0 11 5 23 10 27 7 5 6 8 -1 8
-11 0 -12 48 -1 66 3 6 3 14 -1 18 -11 12 -9 60 2 68 8 5 8 8 0 8 -11 0 -12
59 -1 77 4 6 3 13 0 17 -11 11 -10 46 1 46 7 0 7 3 1 8 -12 9 -15 72 -3 72 5
0 6 6 1 13 -11 17 -11 77 0 77 6 0 6 5 0 13 -11 14 -11 57 0 75 5 6 4 12 -1
12 -10 0 -10 39 1 56 3 6 3 14 -1 18 -11 12 -9 80 3 88 7 5 7 8 0 8 -12 0 -13
40 -2 57 4 7 3 14 -1 17 -10 6 -9 36 1 52 3 6 3 14 0 18 -12 11 -13 45 -3 51
6 4 7 12 3 18 -11 18 -10 91 2 99 7 5 7 8 0 8 -12 0 -13 40 -2 57 4 7 3 14 -1
17 -10 6 -9 36 1 52 3 6 3 14 0 18 -11 11 -12 40 -2 52 6 7 6 15 1 18 -10 6
-9 67 2 84 4 7 3 12 -2 12 -10 0 -10 39 1 56 3 6 3 14 -1 18 -11 12 -9 80 3
88 7 5 7 8 0 8 -12 0 -13 40 -2 57 4 7 3 15 -3 18 -8 5 -7 11 1 21 6 8 8 14 3
14 -5 0 -9 27 -9 60 0 34 4 60 10 60 7 0 7 3 0 8 -5 4 -10 16 -10 27 0 11 5
23 10 27 6 5 6 8 -2 8 -11 0 -11 7 -3 45 1 6 1 12 0 15 -7 17 -3 90 5 90 6 0
4 4 -3 9 -17 11 -18 12 -4 37 6 12 8 24 4 28 -10 10 -10 79 0 93 5 6 5 14 1
16 -10 7 -10 48 1 65 4 7 3 12 -3 12 -10 0 -10 18 2 36 3 6 3 14 0 18 -11 10
-11 79 -1 93 5 6 5 14 1 16 -10 7 -10 48 1 65 4 7 3 12 -3 12 -10 0 -10 18 2
37 4 6 4 14 -1 16 -9 6 -8 79 2 95 4 7 3 12 -3 12 -10 0 -10 18 2 36 3 6 3 14
0 18 -11 10 -11 79 -1 93 5 6 5 14 1 16 -10 7 -10 48 1 65 4 7 3 12 -3 12 -10
0 -10 18 2 36 3 6 3 14 0 18 -10 10 -11 86 -1 92 5 3 5 10 2 16 -11 18 -10 68
1 68 6 0 4 4 -3 9 -19 11 -19 15 -4 34 7 8 9 18 4 21 -9 5 -8 28 2 81 2 11 -1
25 -6 32 -6 8 -3 15 11 23 13 6 21 7 21 1 0 -10 32 -7 50 4 6 3 10 2 10 -2 0
-12 114 -10 122 2 5 6 8 6 8 -2 0 -9 7 -10 24 -3 13 5 27 6 31 2 10 -10 39 -8
47 3 5 6 8 6 8 -1 0 -9 49 -11 85 -4 6 1 12 1 15 0 19 -7 50 -5 50 4 0 7 3 8
8 1 9 -13 95 -13 104 0 5 6 8 6 8 -1 0 -9 31 -11 50 -4 3 1 10 1 15 0 29 -7
85 -4 85 5 0 7 3 7 8 0 4 -5 21 -10 37 -10 17 0 33 5 37 10 5 7 8 7 8 0 0 -12
69 -13 87 -2 7 5 13 5 13 0 0 -4 11 -8 25 -8 14 0 25 4 25 9 0 5 6 4 13 -1 14
-11 57 -11 75 0 6 5 12 4 12 -1 0 -12 53 -10 62 3 5 6 8 6 8 -2 0 -12 17 -12
38 0 6 5 12 4 12 -1 0 -12 53 -10 62 3 5 6 8 6 8 -2 0 -12 17 -12 38 0 6 5 12
4 12 -1 0 -7 53 -9 70 -2 3 1 10 1 15 0 32 -7 55 -6 55 2 0 5 6 6 12 2 16 -10
50 -10 66 0 6 4 12 3 12 -1 0 -10 50 -11 65 -1 6 4 17 3 25 -2 8 -5 22 -5 32
1 10 5 18 6 18 1 0 -10 30 -9 47 1 6 4 14 3 18 -3 4 -7 12 -7 24 0 10 5 21 7
24 3 10 -10 67 -11 67 -1 0 5 5 6 12 2 17 -10 68 -11 68 0 0 5 6 4 13 -1 13
-10 54 -10 64 0 3 4 14 2 25 -4 14 -7 23 -7 34 2 9 7 14 7 14 1 0 -9 18 -9 40
-2 13 5 67 1 83 -5 11 -5 17 -3 17 5 0 8 4 9 13 4 14 -11 77 -11 95 0 6 4 12
4 12 -1 0 -4 16 -8 35 -8 19 0 35 4 35 8 0 4 8 3 18 -2 13 -7 23 -6 30 1 7 7
12 8 12 2 0 -5 23 -9 50 -9 28 0 50 4 50 9 0 6 5 5 12 -2 7 -7 17 -8 30 -1 10
5 18 6 18 1 0 -10 30 -9 46 1 6 3 14 3 18 0 10 -11 46 -11 46 0 0 5 6 5 13 -2
10 -8 17 -7 25 1 7 7 12 8 12 2 0 -8 42 -11 60 -4 8 3 52 1 83 -3 15 -2 27 0
27 6 0 5 6 4 14 -2 8 -7 16 -8 19 -4 5 9 54 8 95 -1 12 -3 22 0 22 5 0 6 7 6
18 2 21 -10 53 -10 69 0 6 4 15 3 18 -3 5 -8 11 -7 22 1 9 8 17 9 21 3 10 -13
42 -14 42 -2 0 7 5 6 13 -1 10 -8 17 -7 25 1 8 8 12 8 12 1 0 -9 25 -10 67 -2
4 1 10 0 13 -1 16 -6 52 -5 56 2 3 4 14 3 25 -2 13 -8 19 -7 19 0 0 7 6 8 18
2 9 -5 26 -6 37 -2 11 4 28 3 38 -2 11 -6 17 -5 17 2 0 6 5 8 12 4 8 -5 9 -2
5 9 -4 10 -1 17 6 17 7 0 8 3 2 8 -13 9 -13 72 0 72 7 0 7 3 0 8 -5 4 -10 21
-10 37 0 17 5 33 10 37 7 5 7 8 0 8 -5 0 -10 11 -10 25 0 14 4 25 8 25 5 0 5
5 1 11 -8 14 -11 129 -3 129 3 0 3 20 -1 45 -4 25 -3 45 2 45 5 0 6 5 2 12
-11 17 -11 58 -1 58 4 0 5 5 1 12 -9 14 -11 68 -3 68 3 0 3 20 -1 45 -4 25 -3
45 2 45 5 0 6 5 2 12 -11 17 -11 58 -1 58 4 0 5 5 1 12 -10 16 -11 68 -1 68 4
0 3 9 -3 20 -8 15 -8 20 2 20 8 0 9 3 3 8 -5 4 -10 21 -10 37 0 17 5 33 10 37
7 5 7 8 0 8 -5 0 -10 16 -10 35 0 19 5 35 10 35 7 0 7 3 0 8 -5 4 -10 21 -10
37 0 17 5 33 10 37 7 5 7 8 0 8 -5 0 -10 11 -10 25 0 14 4 25 8 25 5 0 5 5 1
11 -10 16 -11 129 -1 129 5 0 5 4 2 10 -3 5 -6 33 -6 62 l-1 53 -99 0 c-54 0
-99 -4 -99 -9 0 -5 -6 -4 -12 1 -7 5 -110 8 -228 7 -145 0 -217 3 -222 10 -6
8 -8 8 -8 -1 0 -15 -110 -14 -129 1 -10 7 -13 8 -8 0 4 -7 -19 -11 -73 -11
-54 0 -77 4 -73 11 5 7 2 7 -8 0 -18 -15 -71 -15 -62 -1 4 6 1 7 -8 1 -21 -13
-582 -13 -591 0 -5 7 -8 7 -8 -2 0 -15 -60 -13 -60 3 0 6 -3 6 -8 -1 -9 -13
-200 -13 -221 0 -9 6 -12 5 -8 -1 7 -11 -102 -12 -119 -1 -6 4 -14 4 -18 0
-12 -11 -146 -9 -146 3 0 6 -3 6 -8 -1 -8 -12 -80 -13 -98 -2 -6 4 -14 4 -18
0 -12 -11 -166 -9 -166 3 0 7 -3 7 -8 0 -9 -13 -72 -13 -91 -1 -9 6 -12 5 -8
-1 4 -7 -22 -10 -73 -9 -46 1 -80 5 -80 11 0 6 -4 5 -8 -1 -9 -14 -84 -13 -94
1 -5 7 -8 7 -8 0 0 -12 -148 -14 -166 -3 -6 4 -14 4 -18 1 -11 -11 -226 -11
-219 0 4 6 1 7 -7 2 -21 -13 -134 -14 -142 -1 -5 8 -8 8 -8 0 0 -12 -49 -12
-70 1 -8 5 -11 4 -7 -1 3 -6 -31 -10 -84 -9 -49 0 -89 4 -89 8 0 5 -3 6 -7 4
-5 -3 -8 10 -8 29 0 19 4 34 8 34 5 0 5 6 0 13 -12 19 -12 37 -1 37 7 0 7 4 0
13 -7 8 -7 18 -2 27 5 8 6 19 2 24 -10 16 -10 46 0 46 5 0 6 6 1 13 -12 19
-12 37 -1 37 7 0 7 4 0 13 -7 8 -7 18 -2 27 5 9 5 19 -1 26 -11 14 -8 36 6 46
6 5 6 8 -2 8 -11 0 -9 47 2 59 2 2 0 12 -5 22 -7 12 -7 20 0 24 8 5 7 11 -1
21 -9 11 -8 14 2 14 9 0 10 3 4 8 -13 9 -14 75 0 84 7 5 7 8 -1 8 -12 0 -13
58 -1 77 4 6 3 15 -3 18 -8 5 -7 11 1 21 7 9 8 14 1 14 -10 0 -9 31 2 48 2 4
1 14 -4 22 -5 9 -5 19 2 27 6 8 7 13 1 13 -13 0 -11 43 2 52 6 5 6 8 -2 8 -11
0 -12 24 -1 36 4 3 3 17 -2 30 -6 16 -6 24 1 24 6 0 7 6 2 13 -11 17 -10 41 2
49 7 5 7 8 0 8 -11 0 -12 81 -1 98 4 7 3 12 -2 12 -13 0 -10 33 3 42 6 5 6 8
-1 8 -12 0 -11 41 1 59 3 6 2 11 -4 11 -10 0 -9 19 2 38 5 6 4 12 0 12 -5 0
-9 9 -9 20 0 11 4 20 9 20 6 0 6 5 0 13 -11 14 -11 67 0 84 4 6 3 14 -3 18 -7
4 -7 12 0 25 7 13 7 21 0 25 -6 4 -7 13 -1 24 6 10 6 23 1 31 -5 9 -5 19 2 27
6 8 7 13 1 13 -13 0 -11 43 2 52 6 5 6 8 -2 8 -13 0 -12 18 1 39 7 11 6 12 -5
6 -12 -8 -12 -6 0 8 8 10 9 17 3 17 -10 0 -9 31 2 48 2 4 1 14 -4 22 -5 9 -5
19 2 27 6 7 6 13 1 13 -5 0 -8 16 -8 35 0 19 4 35 8 35 5 0 5 6 0 13 -11 17
-10 41 2 49 7 5 7 8 0 8 -11 0 -12 81 -1 98 4 7 3 12 -2 12 -7 0 -8 33 -2 50
1 3 1 10 0 15 -8 34 -5 75 4 75 7 0 7 3 1 8 -14 10 -17 32 -5 32 6 0 6 9 0 25
-7 18 -6 25 3 25 7 0 8 3 2 8 -12 8 -13 42 -2 60 5 6 4 12 -1 12 -12 0 -10 43
3 52 6 5 6 8 -2 8 -12 0 -12 17 0 36 3 6 3 14 0 18 -12 12 -12 36 0 36 8 0 8
3 2 8 -14 10 -17 32 -5 32 6 0 6 9 0 25 -7 18 -6 25 3 25 7 0 8 3 2 8 -12 8
-13 42 -2 60 5 6 4 12 -1 12 -12 0 -10 43 3 52 6 5 6 8 -2 8 -11 0 -12 24 -1
36 4 3 3 16 -2 29 -5 14 -5 26 3 34 7 7 7 11 1 11 -11 0 -12 29 -2 46 4 5 3
16 -2 24 -5 8 -5 22 1 32 6 12 6 18 -1 18 -12 0 -9 22 5 32 6 5 6 8 -1 8 -9 0
-11 31 -4 50 1 3 1 10 0 15 -6 31 -4 75 4 75 6 0 5 5 -2 12 -7 7 -8 17 -1 30
7 12 6 18 -1 18 -7 0 -8 6 -1 19 6 10 7 21 4 25 -12 12 -11 56 1 56 7 0 7 3 1
8 -14 10 -17 32 -5 32 6 0 6 9 0 25 -7 17 -6 25 1 25 8 0 8 4 2 13 -5 6 -8 23
-6 37 6 42 6 44 -3 64 -5 15 -4 17 6 11 10 -6 11 -4 4 6 -12 19 -12 33 1 41 6
5 6 8 -2 8 -8 0 -9 9 -3 30 5 18 5 32 -1 35 -5 4 -5 14 1 26 8 13 7 19 0 19
-7 0 -8 6 -1 19 6 10 8 21 4 24 -10 10 -10 51 0 65 6 7 6 12 0 12 -11 0 -11
36 0 46 3 4 2 14 -3 24 -5 10 -7 20 -4 22 9 9 11 79 2 84 -4 3 -4 13 1 23 5 9
6 23 2 30 -5 7 -5 28 -1 47 4 19 4 37 -1 40 -5 3 -5 13 1 25 8 13 7 19 0 19
-7 0 -8 6 -1 19 6 10 8 21 4 24 -11 12 -11 57 0 57 8 0 8 3 2 8 -14 10 -17 32
-5 32 6 0 6 9 0 25 -7 17 -6 25 1 25 8 0 8 4 0 13 -8 10 -7 17 1 25 9 9 9 12
0 12 -9 0 -10 5 -3 19 6 10 8 21 4 24 -11 12 -11 57 0 57 8 0 8 3 2 8 -13 9
-18 32 -7 32 9 0 8 47 -1 56 -3 4 -2 15 4 25 5 11 6 19 1 19 -4 0 -8 9 -8 20
0 11 5 20 10 20 6 0 5 5 -1 11 -8 8 -8 20 -3 35 6 14 6 26 0 29 -7 4 -6 13 0
26 6 10 7 19 2 19 -4 0 -8 9 -8 20 0 11 4 20 9 20 4 0 5 6 0 13 -11 18 -12 36
-2 43 5 3 5 13 -1 25 -7 12 -7 19 -1 19 7 0 7 9 1 25 -7 17 -6 25 1 25 8 0 8
4 0 13 -8 10 -7 17 1 25 7 7 8 12 2 12 -5 0 -10 9 -10 20 0 11 4 20 9 20 4 0
5 6 0 13 -11 18 -12 36 -2 43 5 3 5 13 -1 25 -6 10 -7 19 -2 19 9 0 7 58 -2
67 -3 4 -1 12 5 20 6 7 7 13 2 13 -5 0 -9 9 -9 20 0 11 4 20 9 20 5 0 4 7 -3
15 -10 12 -10 15 1 15 12 0 12 2 1 9 -17 11 -17 21 0 32 10 7 9 9 -4 9 -10 0
-18 5 -18 12 0 6 -3 8 -7 5 -3 -4 -12 -2 -20 4 -7 6 -13 8 -13 5 0 -4 -7 -1
-15 6 -34 31 -43 36 -49 31 -3 -4 -6 -2 -6 4 0 6 -13 16 -30 23 -16 7 -30 17
-30 22 0 5 -4 7 -9 3 -5 -3 -16 2 -24 10 -9 8 -20 15 -26 15 -6 0 -11 5 -11
11 0 5 -4 8 -9 5 -5 -3 -14 1 -21 9 -7 8 -17 15 -22 15 -5 0 -16 7 -25 15 -8
8 -19 13 -24 10 -5 -4 -9 -1 -9 4 0 6 -7 11 -16 11 -8 0 -12 5 -9 10 3 6 -3
10 -14 10 -12 0 -21 5 -21 12 0 6 -3 8 -7 5 -3 -4 -13 -1 -22 7 -9 8 -23 16
-31 18 -20 4 -39 21 -33 30 2 4 -3 5 -11 2 -9 -3 -16 -1 -16 6 0 6 -4 8 -10 5
-5 -3 -10 -1 -10 4 0 6 -7 11 -15 11 -8 0 -15 4 -15 8 0 4 -12 13 -27 20 -51
23 -73 37 -73 44 0 5 -8 8 -18 8 -10 0 -28 9 -40 20 -12 12 -22 18 -22 15 0
-4 -7 1 -16 9 -8 9 -20 14 -25 11 -5 -4 -9 1 -9 9 0 9 -7 13 -20 11 -13 -2
-20 2 -20 11 0 8 -4 13 -9 10 -5 -4 -11 -2 -13 3 -1 5 -10 11 -18 13 -8 2 -20
8 -27 13 -30 24 -40 30 -53 33 -8 2 -16 8 -18 13 -2 5 -12 9 -22 9 -10 0 -21
7 -24 16 -3 8 -10 12 -16 9 -5 -3 -10 -1 -10 4 0 6 -7 11 -15 11 -8 0 -15 5
-15 11 0 5 -4 8 -9 5 -4 -3 -16 3 -26 14 -9 10 -23 16 -31 13 -9 -3 -14 1 -14
12 0 9 -4 13 -10 10 -5 -3 -10 -1 -10 5 0 6 -4 8 -10 5 -5 -3 -10 -1 -10 4 0
6 -9 11 -20 11 -11 0 -25 9 -32 19 -6 11 -18 17 -26 13 -10 -3 -13 -1 -8 6 5
8 0 12 -13 12 -12 0 -21 5 -21 10 0 6 -6 10 -13 10 -7 0 -22 8 -33 18 -11 9
-26 18 -34 20 -8 2 -17 8 -21 13 -3 5 -5 -3199 -5 -7120z"/>
<path d="M5165 12413 c-10 -10 -13 -19 -7 -21 7 -2 7 -14 2 -33 -6 -19 -5 -29
2 -29 7 0 7 -4 -1 -13 -6 -8 -8 -17 -4 -21 11 -11 10 -40 -2 -48 -7 -5 -7 -10
0 -15 12 -9 12 -53 1 -71 -4 -6 -3 -12 3 -12 6 0 6 -11 1 -30 -6 -20 -5 -30 2
-30 7 0 7 -4 -1 -13 -6 -8 -8 -17 -4 -21 11 -11 10 -40 -2 -48 -7 -5 -7 -10 0
-15 12 -9 12 -53 1 -71 -4 -6 -3 -12 3 -12 6 0 6 -11 1 -30 -6 -20 -5 -30 2
-30 7 0 7 -4 -1 -13 -6 -8 -8 -17 -4 -21 11 -11 10 -40 -2 -48 -7 -5 -7 -10 0
-15 12 -9 12 -53 1 -71 -4 -6 -3 -12 3 -12 6 0 6 -11 1 -30 -6 -20 -5 -30 2
-30 7 0 7 -4 -1 -13 -6 -8 -8 -17 -4 -21 11 -11 10 -40 -2 -48 -7 -5 -7 -10 0
-15 12 -9 12 -53 1 -71 -4 -6 -3 -12 3 -12 6 0 6 -11 1 -30 -6 -20 -5 -30 2
-30 7 0 7 -4 -1 -13 -6 -8 -8 -17 -4 -21 11 -11 10 -40 -2 -48 -7 -5 -7 -10 0
-15 8 -7 12 -46 5 -63 -5 -13 -5 -100 0 -100 3 0 6 -9 6 -20 0 -11 -3 -20 -7
-20 -7 0 -3 -49 5 -57 3 -3 1 -14 -5 -24 -6 -13 -6 -19 1 -19 5 0 10 -5 10
-11 0 -5 -3 -8 -7 -6 -5 3 -8 -15 -8 -39 0 -24 2 -44 5 -44 3 0 6 -9 6 -20 0
-11 -3 -20 -7 -20 -7 0 -3 -49 5 -57 3 -3 1 -14 -5 -24 -6 -13 -6 -19 1 -19 5
0 10 -5 10 -11 0 -5 -3 -8 -7 -6 -5 3 -8 -15 -8 -39 0 -24 2 -44 5 -44 3 0 6
-9 6 -20 0 -11 -3 -20 -7 -20 -7 0 -3 -49 5 -57 3 -3 1 -14 -5 -24 -6 -13 -6
-19 1 -19 5 0 10 -5 10 -11 0 -5 -3 -8 -7 -6 -5 3 -8 -15 -8 -39 0 -24 2 -44
5 -44 3 0 6 -9 6 -20 0 -11 -3 -20 -7 -20 -7 0 -3 -49 5 -57 3 -3 1 -14 -5
-24 -6 -13 -6 -19 1 -19 5 0 10 -5 10 -11 0 -5 -3 -8 -7 -6 -5 3 -8 -15 -8
-39 0 -24 2 -44 5 -44 3 0 6 -9 6 -20 0 -11 -3 -20 -7 -20 -7 0 -3 -49 5 -57
3 -3 1 -14 -5 -24 -6 -13 -6 -19 1 -19 5 0 10 -5 10 -11 0 -5 -3 -8 -7 -6 -5
3 -8 -15 -8 -39 0 -24 3 -44 7 -44 4 0 5 -6 3 -12 -9 -27 -13 -68 -6 -68 3 0
7 -9 7 -20 0 -11 -3 -20 -7 -20 -7 0 -3 -49 5 -57 3 -3 1 -14 -5 -24 -6 -13
-6 -19 1 -19 5 0 10 -5 10 -11 0 -5 -3 -8 -7 -6 -5 3 -8 -15 -8 -39 0 -24 2
-44 5 -44 3 0 6 -9 6 -20 0 -11 -3 -20 -7 -20 -7 0 -3 -49 5 -57 3 -3 1 -14
-5 -24 -6 -13 -6 -19 1 -19 5 0 10 -5 10 -11 0 -5 -3 -8 -7 -6 -5 3 -8 -15 -8
-39 0 -24 2 -44 5 -44 3 0 6 -9 6 -20 0 -11 -3 -20 -7 -20 -7 0 -3 -49 5 -57
3 -3 1 -14 -5 -24 -6 -13 -6 -19 1 -19 5 0 10 -5 10 -11 0 -5 -3 -8 -7 -6 -5
3 -8 -15 -8 -39 0 -24 2 -44 5 -44 3 0 6 -9 6 -20 0 -11 -3 -20 -7 -20 -7 0
-3 -49 5 -57 3 -3 1 -14 -5 -24 -6 -13 -6 -19 1 -19 5 0 10 -5 10 -11 0 -5 -3
-8 -7 -6 -5 3 -8 -15 -8 -39 0 -24 2 -44 5 -44 3 0 6 -9 6 -20 0 -11 -3 -20
-7 -20 -7 0 -3 -49 5 -57 3 -3 1 -14 -5 -24 -8 -16 -6 -19 13 -20 13 -1 338
-2 724 -3 l701 -1 -3 40 c-2 23 2 42 9 47 8 5 8 8 1 8 -6 0 -11 11 -11 25 0
14 4 22 10 18 6 -4 7 -1 1 8 -13 21 -15 81 -2 73 7 -5 8 -2 2 7 -13 21 -13
172 0 181 8 6 8 8 0 8 -6 0 -11 11 -11 25 0 14 4 22 10 18 6 -4 7 -1 1 8 -13
21 -15 81 -2 73 7 -5 8 -2 2 7 -13 21 -13 172 0 181 8 6 8 8 0 8 -6 0 -11 11
-11 25 0 14 4 22 10 18 6 -4 7 -1 1 8 -13 21 -15 81 -2 73 7 -5 8 -2 2 7 -13
21 -13 172 0 181 8 6 8 8 0 8 -6 0 -11 11 -11 25 0 14 5 25 11 25 7 0 7 3 1 8
-5 4 -11 15 -13 24 -2 13 3 16 20 13 13 -3 24 -9 26 -15 2 -5 9 -10 16 -10 8
0 25 -9 38 -20 14 -10 28 -16 32 -13 3 3 6 0 6 -8 0 -8 9 -15 21 -16 12 -1 26
-9 32 -17 7 -8 19 -16 27 -18 8 -2 21 -9 28 -16 8 -7 17 -10 22 -7 4 3 11 -2
14 -11 3 -9 11 -12 18 -8 7 5 9 2 6 -7 -4 -9 2 -14 19 -15 13 -1 33 -12 43
-24 12 -13 20 -18 20 -10 0 8 6 6 18 -6 9 -10 38 -30 65 -44 26 -13 47 -28 47
-32 0 -5 7 -8 15 -8 8 0 15 -5 15 -11 0 -6 7 -9 15 -5 9 3 15 0 15 -9 0 -9 6
-12 15 -9 8 4 17 -1 21 -10 3 -9 10 -13 15 -10 5 3 9 0 9 -6 0 -6 5 -8 10 -5
6 3 10 2 10 -3 0 -5 14 -15 30 -22 17 -7 30 -17 30 -23 0 -6 3 -7 7 -4 3 4 15
-1 26 -10 15 -13 19 -14 13 -3 -4 9 -2 8 7 -2 8 -10 19 -18 26 -18 6 0 11 -8
11 -17 0 -13 2 -15 8 -5 7 9 13 8 27 -8 10 -11 22 -17 26 -14 5 3 9 0 9 -7 0
-7 3 -9 6 -6 4 4 14 -1 23 -11 9 -9 23 -18 31 -20 8 -2 17 -8 18 -13 2 -5 8
-7 13 -3 5 3 9 1 9 -4 0 -6 14 -15 30 -21 17 -5 30 -15 30 -21 0 -6 5 -8 10
-5 6 3 10 1 10 -4 0 -6 6 -11 14 -11 8 0 21 -6 28 -13 15 -15 49 -31 61 -28 4
0 10 -6 13 -14 3 -8 10 -12 15 -9 5 3 9 0 9 -5 0 -6 6 -11 14 -11 8 0 16 -5
18 -10 2 -6 13 -12 25 -13 12 0 20 -4 17 -8 -2 -4 5 -10 16 -14 11 -4 18 -10
15 -15 -3 -4 3 -7 12 -6 10 2 25 -5 34 -15 9 -10 19 -16 23 -12 3 3 6 1 6 -6
0 -7 7 -11 14 -8 9 4 17 -1 20 -11 4 -10 16 -18 28 -19 13 -1 28 -10 35 -19 7
-10 13 -14 13 -9 0 4 8 1 18 -8 10 -10 22 -14 25 -10 4 3 7 2 7 -3 0 -5 21
-21 47 -34 26 -14 53 -30 60 -37 7 -6 22 -15 33 -18 11 -3 20 -11 20 -16 0 -6
4 -8 9 -5 5 4 11 3 13 -1 4 -10 57 -42 81 -50 9 -3 17 -10 17 -15 0 -5 5 -6
10 -3 6 3 10 2 10 -3 0 -8 28 -25 55 -32 6 -2 15 -10 21 -18 7 -9 16 -12 24
-7 9 5 11 4 6 -3 -5 -8 1 -12 14 -12 14 0 19 -4 14 -12 -5 -8 -2 -9 9 -5 11 4
17 1 17 -9 0 -8 4 -13 9 -9 5 3 16 -2 24 -10 9 -8 22 -15 29 -15 7 0 19 -9 26
-20 7 -12 23 -20 38 -20 14 0 23 -4 19 -10 -6 -9 8 -14 28 -11 4 0 7 -3 7 -8
0 -5 8 -12 19 -16 10 -3 29 -14 41 -25 12 -11 27 -17 31 -14 5 3 9 0 9 -5 0
-6 7 -11 15 -11 8 0 15 -4 15 -8 0 -5 16 -14 35 -22 19 -8 35 -17 35 -21 0 -3
14 -12 30 -19 17 -7 30 -17 30 -22 0 -5 5 -6 10 -3 6 3 10 1 10 -5 0 -6 5 -8
10 -5 6 3 10 1 10 -5 0 -6 4 -9 9 -5 5 3 16 -4 25 -16 8 -12 19 -18 25 -14 6
3 11 1 11 -4 0 -6 7 -11 15 -11 8 0 15 -4 15 -9 0 -5 18 -16 40 -25 22 -9 40
-21 40 -27 0 -5 5 -7 10 -4 6 3 10 2 10 -3 0 -5 8 -12 18 -15 25 -9 104 -56
127 -77 11 -10 29 -20 40 -22 11 -2 19 -9 18 -15 -1 -6 6 -9 16 -6 10 2 24 -1
32 -9 33 -31 99 -69 109 -63 6 3 9 1 8 -7 -2 -7 3 -12 10 -10 7 1 15 -5 18
-13 4 -8 15 -15 25 -15 10 0 19 -4 19 -10 0 -5 7 -10 15 -10 8 0 24 -9 35 -20
11 -11 20 -17 20 -14 0 4 7 1 15 -6 8 -7 15 -9 15 -5 0 4 11 -4 25 -19 14 -15
25 -21 25 -14 0 8 5 6 11 -4 5 -10 17 -18 25 -18 8 0 12 -4 9 -10 -3 -5 0 -7
8 -4 8 3 20 -2 27 -11 7 -8 19 -15 27 -15 8 0 11 -4 8 -10 -3 -5 3 -10 14 -10
12 0 21 -5 21 -12 0 -6 3 -9 6 -6 5 5 58 -24 89 -50 9 -7 39 -20 55 -25 3 0
14 -9 24 -19 11 -10 25 -18 32 -18 7 0 23 -10 35 -22 12 -13 18 -17 14 -9 -5
9 2 7 17 -5 14 -10 24 -22 21 -26 -2 -4 2 -5 10 -2 8 3 21 -2 30 -10 9 -9 20
-16 26 -16 6 0 11 -5 11 -11 0 -5 4 -8 9 -5 5 3 14 -1 21 -9 7 -8 19 -15 26
-15 8 0 14 -5 14 -11 0 -5 4 -8 9 -5 5 3 12 -1 15 -10 3 -9 13 -14 20 -11 8 3
17 -1 20 -10 4 -9 9 -13 13 -10 3 4 12 -1 20 -11 10 -11 12 -12 8 -2 -4 8 1 6
10 -5 9 -11 22 -19 29 -18 7 2 12 -7 12 -21 0 -14 -3 -23 -8 -20 -4 3 -16 -4
-28 -16 -11 -11 -20 -18 -20 -15 0 3 -11 -2 -25 -11 -14 -9 -25 -13 -25 -8 0
5 -7 -1 -15 -13 -13 -19 -58 -39 -78 -34 -5 1 -5 -3 -2 -9 4 -7 -2 -14 -14
-17 -12 -3 -21 -9 -21 -14 0 -5 -7 -6 -15 -2 -9 3 -15 1 -13 -5 2 -5 0 -9 -3
-8 -4 0 -16 -8 -28 -18 -12 -11 -21 -15 -21 -11 0 5 -7 0 -16 -11 -8 -10 -13
-12 -9 -4 4 8 -3 4 -15 -10 -12 -14 -19 -19 -15 -12 7 14 -75 -35 -86 -52 -4
-5 -12 -6 -17 -2 -6 4 -16 -3 -22 -15 -7 -11 -14 -18 -17 -15 -3 3 -21 -7 -40
-21 -18 -14 -36 -23 -40 -20 -3 4 -17 -5 -30 -19 -12 -14 -28 -22 -33 -19 -6
3 -10 2 -10 -4 0 -6 -11 -13 -25 -17 -14 -3 -22 -11 -18 -17 4 -6 -2 -8 -15
-5 -16 4 -19 2 -15 -10 5 -11 3 -13 -6 -7 -7 4 -16 3 -20 -3 -3 -6 -13 -12
-20 -14 -8 -2 -22 -10 -32 -18 -43 -37 -51 -41 -69 -43 -11 -1 -22 -7 -24 -14
-3 -7 -12 -13 -21 -13 -8 0 -15 -5 -15 -11 0 -5 -4 -7 -10 -4 -5 3 -10 2 -10
-3 0 -5 -8 -12 -17 -15 -26 -8 -75 -39 -91 -57 -8 -9 -11 -10 -7 -2 6 11 3 11
-13 1 -12 -7 -19 -16 -17 -19 2 -4 -2 -7 -10 -8 -8 -1 -22 -3 -29 -4 -8 -1
-14 -6 -13 -12 1 -6 -6 -10 -15 -10 -10 1 -18 -2 -18 -7 0 -13 -56 -39 -65
-31 -5 4 -5 2 -1 -5 3 -7 -2 -14 -14 -18 -11 -3 -20 -11 -20 -16 0 -5 -3 -8
-7 -7 -14 2 -48 -15 -56 -29 -5 -7 -12 -11 -16 -8 -5 2 -14 -2 -21 -10 -7 -8
-19 -15 -26 -15 -8 0 -14 -4 -14 -10 0 -5 -7 -10 -15 -10 -8 0 -15 -5 -15 -11
0 -5 -4 -8 -9 -4 -5 3 -12 1 -16 -5 -4 -6 -11 -7 -17 -4 -7 4 -8 2 -4 -4 4 -7
1 -12 -9 -12 -10 0 -13 -5 -9 -12 5 -8 2 -9 -10 -5 -10 4 -24 -1 -35 -12 -11
-11 -22 -17 -25 -14 -3 4 -6 1 -6 -6 0 -8 -6 -11 -16 -7 -8 3 -12 2 -9 -4 3
-6 -1 -10 -9 -10 -9 0 -16 -5 -16 -11 0 -5 -4 -7 -10 -4 -5 3 -10 2 -10 -4 0
-5 -10 -13 -22 -17 -13 -4 -31 -16 -40 -27 -13 -14 -18 -16 -18 -6 -1 10 -5 8
-15 -5 -8 -11 -15 -17 -15 -13 0 4 -9 -2 -21 -14 -11 -11 -26 -18 -34 -16 -7
3 -18 -6 -24 -19 -6 -14 -16 -22 -21 -19 -6 4 -17 1 -25 -5 -8 -7 -15 -9 -15
-5 0 4 -11 -4 -24 -18 -13 -14 -26 -23 -29 -20 -3 3 -26 -9 -52 -27 -26 -18
-53 -33 -60 -34 -8 -1 -18 -6 -22 -11 -4 -4 -2 -5 6 0 9 5 12 4 7 -3 -4 -7
-16 -12 -27 -12 -10 0 -19 -5 -19 -11 0 -5 -4 -7 -10 -4 -5 3 -10 1 -10 -4 0
-6 -7 -11 -15 -11 -8 0 -15 -5 -15 -11 0 -5 -4 -7 -10 -4 -5 3 -10 1 -10 -4 0
-6 -6 -11 -14 -11 -8 0 -17 -7 -20 -16 -4 -10 -13 -13 -27 -9 -14 5 -19 3 -15
-3 3 -6 -4 -14 -16 -18 -12 -3 -31 -15 -42 -25 -11 -11 -26 -17 -33 -15 -6 3
-15 -4 -19 -16 -5 -16 -8 -18 -15 -7 -6 11 -9 11 -9 1 0 -7 -11 -17 -25 -22
-14 -5 -25 -14 -25 -20 0 -6 -4 -9 -9 -5 -5 3 -12 1 -16 -5 -4 -6 -10 -8 -15
-5 -5 3 -14 -4 -20 -15 -6 -11 -15 -18 -20 -15 -5 3 -13 -3 -19 -12 -8 -14
-10 -14 -11 -3 0 10 -4 9 -13 -5 -15 -22 -17 -112 -3 -134 6 -9 5 -12 -2 -7
-9 5 -11 -45 -2 -79 1 -5 1 -12 0 -15 -1 -3 -3 -40 -5 -82 -1 -51 1 -75 8 -71
6 4 7 1 1 -8 -11 -18 -13 -258 -2 -265 5 -3 5 -10 1 -17 -10 -17 -12 -127 -2
-133 5 -3 6 -11 2 -17 -12 -19 -11 -157 0 -150 6 4 7 1 1 -8 -11 -18 -13 -138
-2 -145 5 -3 4 -12 -3 -20 -8 -10 -9 -18 0 -27 6 -8 8 -17 4 -21 -12 -12 -12
-157 0 -149 6 4 7 1 1 -8 -15 -23 -13 -311 3 -334 8 -12 13 -14 13 -6 0 8 3
11 6 8 4 -4 15 2 25 14 12 14 18 16 22 7 3 -8 6 -6 6 5 1 10 5 16 10 12 5 -3
16 1 24 9 8 8 17 12 21 9 3 -4 6 -1 6 5 0 7 7 12 16 12 9 0 12 5 8 12 -4 7 -3
8 4 4 6 -4 20 2 32 14 12 12 20 15 20 7 0 -7 4 -5 10 4 5 9 21 20 35 23 14 4
25 11 25 17 0 6 5 7 10 4 6 -3 10 -1 10 4 0 6 6 11 13 11 7 0 23 9 34 19 12
11 24 17 27 14 3 -4 6 -1 6 5 0 7 6 12 14 12 7 0 19 7 26 15 7 8 16 13 20 10
4 -3 20 7 36 22 16 15 29 25 29 23 0 -2 30 13 68 34 37 21 67 42 67 47 0 5 12
9 26 9 16 0 23 4 18 11 -4 7 -1 10 7 7 8 -3 22 4 32 15 9 11 17 16 17 12 0 -4
9 0 20 10 11 10 20 14 20 9 0 -5 5 -1 11 9 6 9 14 15 20 12 5 -4 9 -1 9 5 0 6
5 8 10 5 6 -3 13 1 16 9 3 9 10 13 15 10 5 -3 9 0 9 6 0 6 5 8 10 5 6 -3 10
-1 10 4 0 6 7 11 15 11 9 0 18 7 21 15 4 8 10 12 15 9 5 -3 9 0 9 6 0 6 4 9
10 5 5 -3 18 3 28 13 10 10 24 16 32 14 7 -3 10 0 6 7 -5 7 1 11 14 11 12 0
19 4 16 9 -7 11 22 23 36 14 6 -3 8 -1 4 5 -4 6 8 16 29 23 19 7 35 16 35 20
0 9 41 24 53 21 5 -1 6 2 3 7 -5 8 15 21 30 20 4 0 10 4 13 9 3 5 20 17 36 26
17 9 52 30 80 45 27 16 54 27 59 24 5 -4 6 -2 3 4 -6 9 83 65 98 63 3 0 12 5
20 12 39 35 41 36 73 44 12 4 22 12 22 20 0 7 5 16 12 20 7 4 8 3 4 -4 -12
-20 13 -13 31 8 10 11 23 20 30 20 6 0 18 7 27 15 8 9 18 16 21 15 21 -1 25 1
20 10 -3 6 3 10 15 10 14 0 19 4 14 12 -5 8 -2 9 10 5 10 -4 19 -1 23 9 3 9
13 14 24 11 13 -3 16 0 12 11 -4 9 -2 13 4 9 5 -3 21 4 34 16 13 12 24 21 24
19 0 -9 55 19 55 28 0 6 5 8 10 5 6 -3 10 -1 10 6 0 7 3 9 6 6 4 -3 26 8 50
24 23 17 47 28 53 24 6 -3 15 4 20 17 6 13 10 19 10 15 1 -5 14 1 29 12 16 11
35 21 43 23 8 2 21 10 29 18 8 8 31 23 50 33 59 30 95 52 98 60 2 4 8 7 14 7
5 0 23 9 39 21 16 11 29 17 29 14 0 -4 7 1 16 9 8 9 21 13 27 9 7 -3 9 -2 4 2
-8 10 43 46 55 39 4 -3 8 -1 8 5 0 5 10 13 22 17 12 3 28 13 36 20 7 8 18 11
24 8 6 -4 8 -3 5 2 -3 5 8 17 24 27 18 10 28 12 24 4 -4 -6 0 -4 9 7 8 10 20
15 27 10 8 -4 10 -3 5 5 -5 8 3 16 23 24 17 6 31 15 31 20 0 4 5 5 10 2 6 -3
10 -1 10 4 0 6 7 11 15 11 8 0 15 5 15 11 0 5 5 7 10 4 6 -3 10 -1 10 5 0 6 5
8 10 5 6 -3 10 -1 10 4 0 6 7 11 15 11 7 0 18 8 24 18 5 9 13 16 18 16 14 -2
58 20 70 36 6 8 15 12 19 8 4 -4 13 0 20 10 7 9 16 17 21 17 4 0 23 10 41 23
17 13 32 20 32 15 0 -4 4 -3 8 3 4 6 22 19 40 28 17 9 32 22 32 29 0 8 4 7 10
-3 8 -13 10 -13 10 2 0 11 5 15 14 12 7 -3 16 2 20 11 4 10 12 15 22 11 8 -3
12 -2 9 3 -5 9 32 27 48 23 5 -1 6 2 2 7 -3 6 5 13 19 17 13 3 27 12 30 20 3
8 15 14 26 14 11 0 20 5 20 10 0 6 7 10 15 10 8 0 15 5 15 11 0 6 5 9 12 7 6
-2 20 4 30 14 10 10 24 16 30 12 6 -4 8 -3 5 2 -3 6 3 16 15 23 16 10 19 10
12 -1 -4 -7 4 -3 18 10 13 12 28 19 31 15 4 -3 7 -1 7 6 0 7 14 17 30 22 17 6
30 15 30 21 0 5 5 6 10 3 6 -3 10 -1 10 4 0 6 6 11 13 11 8 0 24 9 37 20 13
11 29 20 37 20 8 0 11 5 7 12 -5 8 -2 9 10 5 10 -4 19 -1 22 8 4 8 14 15 24
15 11 0 22 5 25 10 4 6 11 7 17 4 7 -4 8 -2 4 4 -8 14 30 36 46 26 6 -4 9 -3
6 2 -3 5 0 15 8 22 8 7 14 10 14 6 0 -3 7 -1 15 6 8 7 15 9 15 4 0 -5 5 -1 11
9 6 9 14 15 20 12 5 -4 9 -1 9 5 0 6 4 9 9 6 5 -3 12 1 15 10 3 8 10 12 16 9
5 -3 10 -1 10 4 0 6 7 11 15 11 7 0 18 8 24 17 5 10 13 15 17 11 4 -4 20 4 36
17 16 14 35 22 40 19 7 -4 8 -2 4 4 -4 7 -1 12 8 12 9 0 16 5 16 12 0 6 3 8 7
5 3 -4 21 5 40 19 18 14 33 22 33 18 0 -4 11 3 25 16 14 13 25 19 25 14 1 -5
10 2 20 15 11 13 20 18 20 11 0 -7 6 -6 16 4 8 9 21 16 28 16 6 0 18 9 25 19
8 11 21 17 29 13 10 -3 13 -1 8 6 -4 7 -1 12 9 12 9 0 28 9 42 20 14 11 30 17
36 13 5 -3 7 -2 4 4 -5 8 32 34 53 37 3 1 21 12 40 26 19 14 37 25 40 25 3 0
4 4 2 8 -1 5 2 6 7 3 5 -4 12 -2 16 4 4 6 10 8 15 5 4 -3 11 2 14 11 4 9 13
14 21 10 8 -3 15 -1 15 3 0 9 94 67 133 83 9 4 17 12 17 18 0 5 3 9 8 8 11 -2
45 14 60 29 7 7 20 13 28 13 9 0 12 5 8 11 -4 7 -1 10 7 7 8 -3 19 0 26 6 24
22 39 31 53 34 7 2 20 11 28 20 9 12 12 13 7 2 -4 -10 -2 -9 8 2 8 10 17 15
20 11 4 -3 7 -1 7 6 0 7 5 9 10 6 6 -3 10 -1 10 5 0 6 4 9 9 6 5 -3 12 1 15
10 3 8 10 12 16 9 5 -3 10 -2 10 3 0 6 11 13 25 16 14 4 23 11 20 16 -3 6 3
10 14 10 28 0 37 20 12 27 -11 3 -18 9 -15 14 3 5 -2 6 -10 3 -9 -3 -16 -1
-16 4 0 11 -38 28 -53 24 -5 -1 -6 1 -3 6 5 9 -28 29 -48 30 -5 0 -13 7 -18
16 -5 9 -15 13 -26 9 -9 -3 -14 -2 -10 2 8 8 -15 25 -64 47 -16 7 -28 16 -28
20 0 4 -9 8 -20 8 -11 0 -23 7 -26 15 -4 8 -10 12 -15 9 -5 -3 -9 0 -9 5 0 6
-5 11 -12 11 -6 0 -23 10 -36 23 -14 12 -22 15 -18 7 4 -8 1 -7 -8 4 -8 10
-19 16 -24 13 -4 -3 -15 3 -22 14 -8 10 -21 19 -29 19 -7 0 -22 10 -32 22 -12
13 -19 16 -19 8 0 -9 -5 -7 -15 6 -8 10 -15 15 -15 11 0 -4 -10 1 -22 13 -12
11 -28 20 -35 20 -7 0 -13 5 -13 11 0 6 -7 9 -15 5 -8 -3 -18 0 -22 7 -12 19
-113 82 -113 71 0 -3 -7 1 -15 8 -32 29 -43 36 -61 40 -10 2 -18 10 -16 17 2
9 -3 11 -13 7 -9 -3 -18 0 -21 9 -3 7 -12 11 -20 8 -8 -3 -14 0 -14 6 0 6 -7
11 -15 11 -8 0 -15 5 -15 10 0 6 -7 10 -15 10 -8 0 -15 4 -15 9 0 5 -16 15
-35 22 -19 7 -35 17 -35 21 0 4 -6 7 -12 6 -7 -2 -12 3 -10 10 1 6 -1 11 -5
11 -25 -4 -43 2 -37 12 4 7 1 10 -7 7 -8 -3 -22 4 -31 15 -13 14 -18 16 -18 6
0 -9 -8 -5 -23 11 -12 14 -29 26 -37 28 -8 2 -16 8 -18 13 -2 5 -12 9 -23 9
-10 0 -19 5 -19 10 0 6 -7 10 -16 10 -8 0 -12 5 -9 10 3 6 -2 10 -13 10 -10 0
-28 9 -40 21 -12 11 -26 18 -31 15 -5 -3 -11 1 -15 9 -3 8 -12 15 -21 15 -8 0
-15 5 -15 11 0 5 -5 7 -10 4 -6 -3 -13 1 -16 9 -3 9 -11 13 -17 9 -5 -3 -15 1
-22 10 -6 9 -18 17 -25 19 -8 2 -23 11 -34 20 -10 10 -22 15 -26 13 -5 -3 -10
2 -14 10 -3 8 -12 12 -21 9 -10 -4 -15 0 -15 10 0 9 -8 16 -20 16 -11 0 -20 5
-20 10 0 6 -7 10 -15 10 -8 0 -15 5 -15 10 0 6 -9 10 -21 10 -11 0 -17 5 -14
10 3 6 -3 10 -14 10 -10 0 -21 4 -23 9 -2 5 -10 11 -18 13 -8 2 -23 11 -34 21
-11 9 -26 17 -33 17 -7 0 -13 5 -13 11 0 6 -6 9 -13 6 -8 -3 -28 8 -45 24 -17
16 -38 29 -46 29 -9 0 -16 4 -16 8 0 5 -17 16 -38 25 -21 9 -47 25 -58 34 -11
10 -26 19 -34 21 -8 2 -16 8 -18 13 -2 5 -11 9 -20 9 -23 1 -53 25 -44 35 4 5
-1 6 -10 2 -9 -3 -19 0 -22 8 -3 9 -12 12 -21 9 -10 -4 -15 -2 -13 7 2 8 -3
13 -9 12 -7 -2 -13 2 -13 8 0 5 -4 7 -10 4 -5 -3 -10 -1 -10 5 0 6 -4 8 -10 5
-5 -3 -10 -2 -10 4 0 6 -11 13 -25 17 -14 3 -22 10 -19 15 3 5 -3 9 -14 9 -10
0 -29 9 -41 19 -12 10 -35 24 -51 31 -17 7 -30 16 -30 21 0 5 -6 8 -12 6 -7
-1 -12 4 -10 11 2 9 -4 11 -18 7 -11 -3 -20 -2 -20 4 0 9 -20 21 -87 55 -13 6
-23 15 -23 19 0 5 -5 5 -10 2 -6 -3 -13 1 -16 9 -3 9 -10 13 -15 10 -5 -3 -12
1 -15 10 -3 8 -11 13 -19 10 -7 -3 -15 2 -18 10 -4 9 -14 16 -22 16 -9 0 -13
4 -10 10 3 5 0 7 -9 4 -9 -3 -25 5 -39 18 -14 14 -31 24 -40 22 -9 -1 -18 4
-21 12 -3 8 -13 14 -21 14 -9 0 -13 4 -10 10 3 5 0 7 -8 4 -8 -3 -17 2 -21 11
-3 10 -12 15 -21 11 -9 -3 -15 0 -15 9 0 8 -6 15 -14 15 -19 0 -76 33 -76 43
0 5 -4 5 -10 2 -5 -3 -10 -1 -10 4 0 6 -7 11 -15 11 -8 0 -15 5 -15 11 0 5 -4
8 -9 5 -5 -3 -11 1 -15 9 -3 8 -13 15 -22 15 -9 0 -25 10 -35 22 -13 14 -19
17 -19 7 -1 -11 -3 -11 -13 2 -7 9 -18 14 -26 11 -8 -2 -11 -1 -8 4 2 5 -1 15
-9 22 -8 7 -14 10 -14 7 0 -9 -63 28 -77 45 -6 8 -14 12 -18 8 -4 -4 -16 2
-28 13 -11 10 -27 19 -34 19 -7 0 -13 5 -13 10 0 6 -7 10 -15 10 -8 0 -15 5
-15 10 0 6 -8 10 -19 10 -10 0 -24 7 -31 15 -7 9 -28 23 -46 31 -19 9 -34 21
-34 26 0 5 -4 6 -10 3 -5 -3 -10 -1 -10 5 0 7 -7 10 -15 6 -8 -3 -15 -1 -15 4
0 6 -7 10 -15 10 -8 0 -15 4 -15 9 0 5 -13 14 -30 21 -16 7 -30 16 -30 20 0 4
-11 11 -25 14 -14 4 -23 11 -20 16 3 5 -4 7 -15 5 -11 -2 -20 0 -20 6 0 5 -12
15 -27 22 -16 6 -33 16 -40 22 -7 5 -19 15 -27 22 -7 6 -17 9 -20 6 -3 -4 -14
2 -23 13 -10 10 -25 20 -33 22 -8 2 -16 8 -18 13 -2 5 -10 9 -18 9 -8 0 -14 4
-14 10 0 5 -3 9 -7 9 -19 -3 -34 2 -29 9 2 4 -5 9 -17 9 -11 1 -25 9 -29 18
-5 8 -13 13 -19 10 -5 -4 -9 -1 -9 4 0 6 -6 11 -14 11 -7 0 -24 10 -38 23 -14
13 -29 22 -35 20 -5 -2 -21 8 -35 22 -19 18 -28 22 -31 13 -3 -8 -6 -6 -6 5
-1 10 -5 16 -10 12 -5 -3 -12 -1 -16 4 -3 5 -19 17 -35 25 -17 9 -43 23 -60
32 -16 8 -30 20 -30 26 0 5 -6 8 -12 6 -7 -3 -21 4 -32 13 -10 10 -23 16 -28
13 -4 -3 -8 -2 -8 3 0 4 -12 17 -27 27 -16 12 -23 14 -18 5 5 -8 1 -7 -12 4
-11 9 -23 14 -28 10 -4 -5 -5 -3 -2 3 4 7 -1 18 -10 25 -12 10 -14 10 -9 2 4
-7 2 -13 -3 -13 -6 0 -11 5 -11 10 0 6 -7 10 -16 10 -8 0 -12 5 -9 10 3 6 -2
10 -12 10 -10 0 -36 15 -58 32 -22 18 -36 27 -31 20 7 -11 4 -11 -12 -1 -12 7
-18 17 -16 21 3 5 2 8 -3 7 -13 -3 -73 25 -73 33 0 4 -7 8 -15 8 -8 0 -15 5
-15 11 0 5 -4 7 -10 4 -5 -3 -10 -1 -10 5 0 6 -4 8 -10 5 -5 -3 -10 -1 -10 4
0 6 -7 11 -15 11 -7 0 -18 6 -22 14 -4 8 -11 15 -15 16 -34 8 -48 14 -48 21 0
5 -7 9 -15 9 -8 0 -15 5 -15 11 0 6 -7 9 -15 5 -8 -3 -14 0 -12 6 1 5 -7 12
-17 14 -10 1 -22 6 -25 11 -10 14 -70 53 -81 53 -6 0 -21 9 -33 20 -12 11 -27
18 -33 16 -7 -3 -15 2 -18 10 -3 8 -12 14 -19 14 -8 0 -20 7 -27 15 -7 8 -16
12 -21 9 -5 -3 -9 2 -9 10 0 9 -3 15 -7 14 -14 -4 -53 13 -53 23 0 5 -5 9 -12
9 -6 0 -27 12 -46 27 -20 15 -32 20 -27 12 4 -8 -3 -5 -16 7 -13 11 -41 29
-61 39 -21 11 -38 23 -38 28 0 4 -5 5 -10 2 -6 -3 -13 1 -16 10 -4 9 -12 14
-19 11 -8 -3 -16 2 -19 11 -4 9 -13 13 -22 9 -8 -3 -13 -2 -9 3 3 5 -13 17
-34 27 -22 10 -38 21 -35 26 3 4 -2 5 -10 2 -9 -4 -18 1 -22 10 -3 9 -10 13
-15 10 -5 -3 -9 0 -9 6 0 6 -4 9 -9 5 -5 -3 -17 3 -27 12 -24 24 -67 46 -59
30 4 -7 -2 -3 -12 8 -21 22 -69 53 -95 62 -10 3 -18 10 -18 15 0 5 -4 7 -9 4
-5 -3 -11 1 -15 9 -3 8 -11 15 -17 15 -7 0 -21 8 -32 18 -15 12 -18 13 -12 2
5 -8 -6 -3 -24 13 -18 15 -37 25 -42 21 -5 -3 -9 2 -9 11 0 9 -4 14 -9 10 -5
-3 -16 2 -25 11 -9 8 -25 16 -35 17 -11 0 -17 5 -15 9 3 4 0 8 -7 8 -6 0 -18
8 -26 18 -8 9 -11 11 -7 3 4 -8 -9 -2 -29 13 -20 16 -37 25 -37 21 0 -3 -7 0
-15 7 -35 31 -50 43 -55 42 -10 -2 -50 19 -50 28 0 4 -11 8 -25 8 -16 0 -25 6
-25 15 0 8 -4 16 -10 16 -5 1 -16 2 -22 3 -7 1 -12 8 -10 15 2 8 -3 11 -12 8
-9 -4 -22 0 -30 8 -8 8 -20 15 -26 15 -6 0 -8 5 -4 12 5 7 3 8 -5 4 -7 -5 -19
0 -27 10 -9 11 -13 13 -9 7 4 -9 1 -11 -9 -7 -9 3 -16 13 -16 22 0 8 -3 12 -7
9 -3 -4 -12 -2 -20 4 -7 6 -13 8 -13 3 0 -5 -7 1 -15 13 -9 13 -22 20 -30 17
-8 -4 -15 -1 -15 7 0 7 -3 9 -7 6 -3 -4 -13 2 -20 13 -8 11 -19 18 -24 15 -5
-4 -9 -1 -9 5 0 7 -7 9 -16 6 -8 -3 -12 -2 -9 4 3 6 -1 10 -9 10 -9 0 -16 5
-16 10 0 6 -5 10 -11 10 -6 0 -23 9 -39 20 -15 11 -30 17 -34 13 -3 -3 -6 -1
-6 5 0 7 -7 12 -16 12 -9 0 -12 5 -8 12 5 8 2 9 -9 5 -10 -4 -22 1 -29 11 -7
9 -22 19 -33 20 -10 2 -27 13 -37 24 -10 12 -18 18 -18 14 0 -4 -13 2 -29 13
-15 11 -31 18 -35 14 -3 -3 -6 -1 -6 5 0 7 -7 12 -16 12 -9 0 -12 5 -8 12 4 6
3 8 -3 5 -5 -3 -21 1 -34 11 -13 9 -31 18 -39 19 -8 1 -16 7 -18 12 -2 6 -26
23 -52 37 -29 16 -47 31 -43 38 4 6 -1 5 -10 -3 -15 -12 -17 -11 -17 3 0 9 -3
15 -7 14 -14 -4 -93 42 -93 53 0 6 -7 9 -15 5 -8 -3 -15 -1 -15 4 0 6 -6 10
-13 10 -8 0 -22 9 -32 20 -10 11 -25 20 -33 20 -8 0 -22 8 -31 18 -9 9 -25 19
-36 20 -11 2 -23 9 -27 15 -6 10 -26 22 -98 59 -14 7 -28 17 -31 22 -4 5 -13
5 -20 1 -9 -6 -11 -4 -6 8 3 9 3 16 -1 16 -22 -4 -42 2 -37 11 3 6 -2 10 -13
10 -11 0 -31 12 -46 26 -16 17 -26 22 -26 13 -1 -10 -4 -9 -14 4 -13 17 -15
17 -31 0z"/>
<path d="M5159 6265 c-5 -3 -5 -35 0 -35 4 0 7 -9 7 -20 0 -11 -3 -20 -7 -20
-7 0 -3 -49 5 -57 3 -3 1 -14 -5 -24 -6 -13 -6 -19 1 -19 5 0 10 -5 10 -11 0
-5 -3 -8 -7 -6 -5 3 -8 -15 -8 -39 0 -24 2 -44 5 -44 3 0 6 -9 6 -20 0 -11 -3
-20 -7 -20 -7 0 -3 -49 5 -57 3 -3 1 -14 -5 -24 -6 -13 -6 -19 1 -19 5 0 10
-5 10 -11 0 -5 -3 -8 -7 -6 -5 3 -8 -15 -8 -39 0 -24 2 -44 5 -44 3 0 6 -9 6
-20 0 -11 -3 -20 -7 -20 -7 0 -3 -49 5 -57 3 -3 1 -14 -5 -24 -6 -13 -6 -19 1
-19 5 0 10 -5 10 -11 0 -5 -3 -8 -7 -6 -5 3 -8 -15 -8 -39 0 -24 2 -44 5 -44
3 0 6 -9 6 -20 0 -11 -3 -20 -7 -20 -7 0 -3 -49 5 -57 3 -3 1 -14 -5 -24 -6
-13 -6 -19 1 -19 5 0 10 -5 10 -11 0 -5 -3 -8 -7 -6 -5 3 -8 -15 -8 -39 0 -24
2 -44 5 -44 3 0 6 -9 6 -20 0 -11 -3 -20 -7 -20 -7 0 -3 -49 5 -57 3 -3 1 -14
-5 -24 -6 -13 -6 -19 1 -19 5 0 10 -5 10 -11 0 -5 -3 -8 -7 -6 -5 3 -8 -15 -8
-39 0 -24 2 -44 5 -44 3 0 6 -9 6 -20 0 -11 -3 -20 -7 -20 -7 0 -3 -49 5 -57
3 -3 1 -14 -5 -24 -6 -13 -6 -19 1 -19 5 0 10 -5 10 -11 0 -5 -3 -8 -7 -6 -5
3 -8 -15 -8 -39 0 -24 3 -44 7 -44 4 0 3 -11 -2 -24 -5 -15 -5 -27 3 -35 7 -7
7 -11 1 -11 -6 0 -11 -7 -11 -15 0 -8 5 -15 10 -15 5 0 5 -6 -2 -13 -8 -10 -7
-17 1 -25 7 -7 8 -12 2 -12 -6 0 -11 -7 -11 -15 0 -8 5 -15 10 -15 5 0 5 -6
-2 -13 -8 -10 -7 -17 1 -25 7 -7 8 -12 2 -12 -6 0 -11 -7 -11 -15 0 -8 5 -15
10 -15 5 0 5 -6 -2 -13 -8 -10 -7 -17 1 -25 7 -7 8 -12 2 -12 -6 0 -11 -7 -11
-15 0 -8 5 -15 10 -15 5 0 5 -6 -2 -13 -8 -10 -7 -17 1 -25 7 -7 8 -12 2 -12
-6 0 -11 -7 -11 -15 0 -8 5 -15 10 -15 5 0 5 -6 -2 -13 -8 -10 -7 -17 1 -25 7
-7 8 -12 2 -12 -6 0 -11 -7 -11 -15 0 -8 5 -15 10 -15 5 0 5 -6 -2 -13 -8 -10
-7 -17 1 -25 7 -7 8 -12 2 -12 -6 0 -11 -7 -11 -15 0 -8 5 -15 10 -15 5 0 5
-6 -2 -13 -8 -10 -7 -17 1 -25 7 -7 8 -12 2 -12 -6 0 -11 -7 -11 -15 0 -8 5
-15 10 -15 5 0 5 -6 -2 -13 -8 -10 -7 -17 1 -25 7 -7 8 -12 2 -12 -6 0 -11 -7
-11 -15 0 -8 5 -15 11 -15 6 0 5 -5 -2 -12 -8 -8 -9 -15 -1 -25 7 -7 7 -13 2
-13 -5 0 -10 -7 -10 -15 0 -8 5 -15 10 -15 5 0 5 -6 -2 -13 -8 -10 -7 -17 1
-25 7 -7 8 -12 2 -12 -6 0 -11 -7 -11 -15 0 -8 5 -15 10 -15 5 0 5 -6 -2 -13
-8 -10 -7 -17 1 -25 7 -7 8 -12 2 -12 -6 0 -11 -7 -11 -15 0 -8 4 -15 8 -15 5
0 5 -11 0 -23 -5 -13 -6 -30 -1 -37 4 -7 4 -25 0 -40 -4 -15 -4 -33 0 -40 4
-7 4 -25 0 -40 -4 -15 -4 -33 0 -40 4 -7 4 -25 0 -40 -4 -15 -4 -33 0 -40 4
-7 4 -25 0 -40 -4 -15 -4 -33 0 -40 4 -7 4 -25 0 -40 -4 -15 -4 -33 0 -40 4
-7 4 -25 0 -40 -4 -15 -4 -33 0 -40 4 -7 4 -25 0 -40 -4 -15 -4 -33 0 -40 4
-7 4 -25 0 -40 -4 -15 -4 -33 0 -40 4 -7 4 -25 0 -40 -4 -15 -4 -33 0 -40 4
-7 4 -25 0 -40 -4 -15 -4 -33 0 -40 4 -7 4 -25 0 -40 -4 -15 -4 -33 0 -40 4
-7 4 -25 0 -40 -4 -15 -4 -33 0 -40 4 -7 4 -25 0 -40 -4 -15 -4 -33 0 -40 4
-7 4 -25 0 -40 -4 -15 -4 -33 0 -40 5 -7 4 -24 -1 -37 -5 -15 -5 -23 2 -23 6
0 7 -4 4 -10 -11 -19 10 -10 25 9 7 11 17 18 21 16 3 -3 18 5 33 16 14 11 31
17 38 13 7 -4 10 -4 6 1 -7 7 45 48 62 50 3 0 20 10 38 23 17 13 32 20 32 17
0 -4 7 1 16 9 8 9 20 13 26 10 7 -4 8 -2 4 4 -4 7 3 14 18 18 13 3 32 14 42
25 9 10 21 16 25 13 5 -3 9 0 9 6 0 7 7 10 15 6 9 -3 15 0 15 8 0 11 15 20 45
25 3 1 14 10 25 21 11 11 31 22 45 26 14 3 25 10 25 16 0 5 4 7 9 4 5 -3 12 1
15 10 3 9 13 14 20 11 8 -3 17 1 20 9 3 9 10 12 16 9 5 -3 10 1 10 10 0 9 5
13 10 10 6 -3 10 -1 10 5 0 6 4 9 9 6 5 -3 20 4 35 15 14 11 26 17 26 12 0 -4
7 1 15 11 8 11 15 16 15 12 0 -4 7 0 16 8 8 9 20 13 26 10 6 -4 8 -2 4 4 -6
10 30 28 47 24 4 -1 7 3 7 8 0 6 16 18 35 27 19 9 32 20 29 25 -3 4 2 5 10 2
9 -3 16 -1 16 5 0 6 3 10 8 10 19 -3 32 2 30 12 -3 10 16 18 49 21 7 1 10 4 8
8 -2 3 9 14 26 24 16 9 29 14 29 11 0 -3 10 4 22 15 13 11 33 23 45 26 13 4
23 10 23 16 0 5 4 7 9 4 5 -3 12 1 15 10 3 8 10 12 16 9 6 -3 13 1 16 9 3 9
10 14 14 11 4 -3 13 2 20 10 7 8 19 15 26 15 8 0 14 5 14 12 0 6 3 9 6 5 4 -3
13 1 21 9 8 8 19 12 24 9 5 -4 9 0 9 8 0 8 7 14 16 13 15 -1 16 27 17 271 1
171 4 270 10 266 6 -4 7 -1 1 8 -13 21 -15 160 -1 152 6 -4 7 -1 1 8 -12 19
-13 209 -1 202 6 -4 7 -1 1 8 -13 21 -13 172 0 181 8 6 8 8 0 8 -6 0 -11 11
-11 25 0 14 4 22 10 18 6 -4 7 -1 1 8 -12 19 -13 239 0 232 5 -4 6 -1 0 8 -13
21 -13 172 0 181 8 6 8 8 0 8 -6 0 -11 11 -11 25 0 14 4 22 10 18 6 -4 7 -1 1
8 -13 21 -15 81 -2 73 7 -5 8 -2 2 7 -13 21 -13 172 0 181 8 6 8 8 0 8 -6 0
-11 11 -11 25 0 14 4 22 10 18 6 -4 7 -1 1 8 -13 21 -15 81 -2 73 7 -5 8 -2 2
7 -13 21 -13 172 0 181 8 6 8 8 0 8 -6 0 -11 11 -11 25 0 14 4 22 10 18 6 -4
7 -1 1 8 -13 21 -15 81 -2 73 7 -5 8 -2 2 7 -13 21 -13 172 0 181 8 6 8 8 0 8
-6 0 -11 11 -11 25 0 14 4 22 10 18 6 -4 7 -1 1 8 -5 8 -9 73 -9 144 l0 130
-718 0 c-394 1 -717 1 -718 0z"/>
</g>
</svg>
